<?xml version="1.0" encoding="UTF-8" standalone="no"?>
<svg width="31px" height="31px" viewBox="0 0 31 31" version="1.1" xmlns="http://www.w3.org/2000/svg" xmlns:xlink="http://www.w3.org/1999/xlink">
    <!-- Generator: Sketch 43.2 (39069) - http://www.bohemiancoding.com/sketch -->
    <title>linkedin</title>
    <desc>Created with Sketch.</desc>
    <defs></defs>
    <g id="Page-1" stroke="none" stroke-width="1" fill="none" fill-rule="evenodd">
        <g id="HomePage-Copy-2" transform="translate(-104.000000, -852.000000)" fill="#FFFFFF">
            <g id="Group-10" transform="translate(104.000000, 849.000000)">
                <g id="Group-8">
                    <g id="linkedin" transform="translate(0.000000, 3.000000)">
                        <path d="M26.412,26.4178125 L21.820125,26.4178125 L21.820125,19.223875 C21.820125,17.50725 21.78525,15.3004375 19.42925,15.3004375 C17.0364375,15.3004375 16.67025,17.1681875 16.67025,19.0979375 L16.67025,26.4178125 L12.078375,26.4178125 L12.078375,11.625 L16.488125,11.625 L16.488125,13.64 L16.54625,13.64 C17.162375,12.4775 18.662,11.2510625 20.8998125,11.2510625 C25.5498125,11.2510625 26.412,14.3123125 26.412,18.29775 L26.412,26.412 L26.412,26.4178125 Z M6.893625,9.6003125 C5.41725,9.6003125 4.227625,8.404875 4.227625,6.932375 C4.227625,5.46375 5.41725,4.2683125 6.893625,4.2683125 C8.366125,4.2683125 9.559625,5.46375 9.559625,6.932375 C9.559625,8.404875 8.3641875,9.6003125 6.893625,9.6003125 L6.893625,9.6003125 Z M9.195375,26.4178125 L4.591875,26.4178125 L4.591875,11.625 L9.195375,11.625 L9.195375,26.4178125 L9.195375,26.4178125 Z M28.706,0 L2.28625,0 C1.023,0 0,0.99975 0,2.2339375 L0,28.7660625 C0,30.00025 1.023,31 2.28625,31 L28.7040625,31 C29.9673125,31 31,30.00025 31,28.7660625 L31,2.2339375 C31,0.99975 29.9673125,0 28.7040625,0 L28.706,0 Z" id="Shape"></path>
                    </g>
                </g>
            </g>
        </g>
    </g>
</svg>