<?xml version="1.0" encoding="UTF-8" standalone="no"?>
<svg width="28px" height="22px" viewBox="0 0 28 22" version="1.1" xmlns="http://www.w3.org/2000/svg" xmlns:xlink="http://www.w3.org/1999/xlink">
    <!-- Generator: Sketch 44.1 (41455) - http://www.bohemiancoding.com/sketch -->
    <title>Artboard 3</title>
    <desc>Created with Sketch.</desc>
    <defs></defs>
    <g id="Page-1" stroke="none" stroke-width="1" fill="none" fill-rule="evenodd">
        <g id="Artboard-3" fill="#000000">
            <path d="M5.85,19.625 C5.79999975,19.8750013 5.641668,20 5.375,20 L2.75,20 C2.549999,20 2.40833375,19.9458339 2.325,19.8375 C2.24166625,19.7291661 2.2166665,19.6166672 2.25,19.5 L6.725,2.875 C6.77500025,2.62499875 6.933332,2.5 7.2,2.5 L10.55,2.5 C10.816668,2.5 10.9749998,2.62499875 11.025,2.875 L15.475,19.5 C15.5083335,19.6166672 15.4833337,19.7291661 15.4,19.8375 C15.3166663,19.9458339 15.175001,20 14.975,20 L12.35,20 C12.1166655,20 11.9583337,19.8750013 11.875,19.625 L11.1,17.05 C11.0666665,16.9499995 11.0250002,16.8625004 10.975,16.7875 C10.9249997,16.7124996 10.8416673,16.675 10.725,16.675 L6.925,16.675 C6.724999,16.675 6.60000025,16.7999988 6.55,17.05 L5.85,19.625 Z M7.5,12.9 C7.44999975,13.0833343 7.51666575,13.175 7.7,13.175 L10,13.175 C10.1833343,13.175 10.2500002,13.0833343 10.2,12.9 L9,6.9 C8.98333325,6.833333 8.941667,6.8 8.875,6.8 L8.825,6.8 C8.758333,6.8 8.71666675,6.833333 8.7,6.9 L7.5,12.9 Z M20.6,14.9 C20.333332,14.9 20.1166675,14.9458329 19.95,15.0375 C19.7833325,15.1291671 19.6541671,15.241666 19.5625,15.375 C19.4708328,15.508334 19.4083335,15.6458326 19.375,15.7875 C19.3416665,15.9291674 19.325,16.0499995 19.325,16.15 C19.325,16.616669 19.4874983,16.9541656 19.8125,17.1625 C20.1375016,17.3708344 20.5249977,17.475 20.975,17.475 C21.6916702,17.475 22.2916642,17.3500012 22.775,17.1 C23.2583357,16.8499987 23.5,16.4000032 23.5,15.75 L23.5,15.15 C23.5,14.9833325 23.4166675,14.9 23.25,14.9 L20.6,14.9 Z M21.45,10.075 C21.316666,10.075 21.1541676,10.0874999 20.9625,10.1125 C20.7708323,10.1375001 20.5833342,10.183333 20.4,10.25 C20.2166657,10.316667 20.058334,10.4124994 19.925,10.5375 C19.791666,10.6625006 19.725,10.824999 19.725,11.025 C19.725,11.2416677 19.6708338,11.3749998 19.5625,11.425 C19.4541661,11.4750003 19.2833345,11.5 19.05,11.5 L17.25,11.5 C17.116666,11.5 17.0000005,11.4500005 16.9,11.35 C16.7999995,11.2499995 16.75,11.133334 16.75,11 C16.75,10.4999975 16.8624988,10.0250023 17.0875,9.575 C17.3125011,9.12499775 17.6291646,8.72500175 18.0375,8.375 C18.4458353,8.02499825 18.949997,7.74583438 19.55,7.5375 C20.150003,7.32916563 20.8249962,7.225 21.575,7.225 C23.0916742,7.225 24.3041621,7.61249612 25.2125,8.3875 C26.1208378,9.16250387 26.575,10.283326 26.575,11.75 L26.575,19.5 C26.575,19.633334 26.5250005,19.7499995 26.425,19.85 C26.3249995,19.9500005 26.208334,20 26.075,20 L24.825,20 C24.691666,20 24.5750005,19.9416673 24.475,19.825 C24.3916662,19.7249995 24.3291668,19.6166672 24.2875,19.5 C24.2458331,19.3833328 24.1416675,19.325 23.975,19.325 C23.8583327,19.325 23.7250007,19.3749995 23.575,19.475 C23.4249992,19.5750005 23.2333345,19.6833327 23,19.8 C22.7666655,19.9166672 22.4875016,20.0249995 22.1625,20.125 C21.8374983,20.2250005 21.441669,20.275 20.975,20.275 C19.508326,20.275 18.3583375,19.9166703 17.525,19.2 C16.6916625,18.4833298 16.275,17.4666732 16.275,16.15 C16.275,15.7166645 16.3624991,15.2708356 16.5375,14.8125 C16.7125008,14.3541644 16.9791648,13.9333352 17.3375,13.55 C17.6958351,13.1666647 18.1458306,12.8541679 18.6875,12.6125 C19.2291693,12.3708321 19.8583297,12.25 20.575,12.25 L23.125,12.25 C23.2916675,12.25 23.375,12.1666675 23.375,12 L23.375,11.6 C23.375,11.0833307 23.1916685,10.7000012 22.825,10.45 C22.4583315,10.1999987 22.0000027,10.075 21.45,10.075 Z" id="Aa"></path>
        </g>
    </g>
</svg>