<?xml version="1.0" encoding="UTF-8" standalone="no"?>
<svg width="28px" height="28px" viewBox="0 0 28 28" version="1.1" xmlns="http://www.w3.org/2000/svg" xmlns:xlink="http://www.w3.org/1999/xlink">
    <!-- Generator: Sketch 43.2 (39069) - http://www.bohemiancoding.com/sketch -->
    <title>github</title>
    <desc>Created with Sketch.</desc>
    <defs></defs>
    <g id="Page-1" stroke="none" stroke-width="1" fill="none" fill-rule="evenodd">
        <g id="HomePage-Copy-2" transform="translate(-107.000000, -980.000000)" fill="#FFFFFF">
            <g id="Group-10" transform="translate(104.000000, 849.000000)">
                <g id="Group-11" transform="translate(3.000000, 127.000000)">
                    <g id="github" transform="translate(0.000000, 4.000000)">
                        <path d="M14,0 C6.265,0 0,6.2685 0,14 C0,20.18625 4.011,25.43275 9.5725,27.2825 C10.2725,27.41375 10.52975,26.9815 10.52975,26.60875 C10.52975,26.27625 10.5175,25.396 10.51225,24.22875 C6.61675,25.074 5.796,22.351 5.796,22.351 C5.159,20.734 4.2385,20.3035 4.2385,20.3035 C2.96975,19.4355 4.3365,19.453 4.3365,19.453 C5.74175,19.551 6.48025,20.895 6.48025,20.895 C7.72975,23.03525 9.758,22.4175 10.55775,22.05875 C10.68375,21.154 11.04425,20.53625 11.445,20.18625 C8.33525,19.83625 5.068,18.63225 5.068,13.2685 C5.068,11.74075 5.6105,10.49125 6.50825,9.51125 C6.35075,9.15775 5.87825,7.735 6.63075,5.8065 C6.63075,5.8065 7.80325,5.43025 10.48075,7.2415 C11.60075,6.93 12.79075,6.776 13.98075,6.769 C15.17075,6.776 16.36075,6.93 17.48075,7.2415 C20.14075,5.43025 21.31325,5.8065 21.31325,5.8065 C22.06575,7.735 21.59325,9.15775 21.45325,9.51125 C22.34575,10.49125 22.88825,11.74075 22.88825,13.2685 C22.88825,18.64625 19.61575,19.831 16.50075,20.17575 C16.99075,20.59575 17.44575,21.45325 17.44575,22.76575 C17.44575,24.63825 17.42825,26.14325 17.42825,26.59825 C17.42825,26.96575 17.67325,27.40325 18.39075,27.26325 C23.9925,25.4275 28,20.1775 28,14 C28,6.2685 21.7315,0 14,0" id="Shape"></path>
                    </g>
                </g>
            </g>
        </g>
    </g>
</svg>