<?xml version="1.0" encoding="UTF-8" standalone="no"?>
<svg width="30px" height="30px" viewBox="0 0 30 30" version="1.1" xmlns="http://www.w3.org/2000/svg" xmlns:xlink="http://www.w3.org/1999/xlink">
    <!-- Generator: Sketch 43.2 (39069) - http://www.bohemiancoding.com/sketch -->
    <title>facebook</title>
    <desc>Created with Sketch.</desc>
    <defs></defs>
    <g id="Page-1" stroke="none" stroke-width="1" fill="none" fill-rule="evenodd">
        <g id="HomePage-Copy-2" transform="translate(-105.000000, -917.000000)" fill="#FFFFFF">
            <g id="Group-10" transform="translate(104.000000, 849.000000)">
                <g id="Group-9" transform="translate(1.000000, 64.000000)">
                    <g id="facebook" transform="translate(0.000000, 4.000000)">
                        <path d="M28.344375,0 L1.655625,0 C0.740625,0 0,0.740625 0,1.655625 L0,28.344375 C0,29.259375 0.740625,30 1.655625,30 L16.02375,30 L16.02375,18.3825 L12.1125,18.3825 L12.1125,13.85625 L16.02375,13.85625 L16.02375,10.513125 C16.02375,6.639375 18.39,4.531875 21.8475,4.531875 C23.503125,4.531875 24.92625,4.651875 25.340625,4.708125 L25.340625,8.758125 L22.940625,8.758125 C21.065625,8.758125 20.7,9.658125 20.7,10.970625 L20.7,13.858125 L25.18125,13.858125 L24.6,18.395625 L20.7,18.395625 L20.7,30 L28.344375,30 C29.259375,30 30,29.259375 30,28.344375 L30,1.655625 C30,0.740625 29.259375,0 28.344375,0" id="Shape"></path>
                    </g>
                </g>
            </g>
        </g>
    </g>
</svg>