<?xml version="1.0" encoding="UTF-8" standalone="no"?>
<svg width="32px" height="27px" viewBox="0 0 32 27" version="1.1" xmlns="http://www.w3.org/2000/svg" xmlns:xlink="http://www.w3.org/1999/xlink">
    <!-- Generator: Sketch 43.2 (39069) - http://www.bohemiancoding.com/sketch -->
    <title>medium</title>
    <desc>Created with Sketch.</desc>
    <defs></defs>
    <g id="Page-1" stroke="none" stroke-width="1" fill="none" fill-rule="evenodd">
        <g id="HomePage-Copy-2" transform="translate(-352.000000, -918.000000)" fill="#FFFFFF">
            <g id="Group-10" transform="translate(104.000000, 849.000000)">
                <g id="Group-7" transform="translate(248.000000, 65.000000)">
                    <g id="medium" transform="translate(0.000000, 4.000000)">
                        <path d="M23.4323513,22.2698818 L22.8967645,23.1431213 L24.4453091,23.9154531 L29.7701291,26.5778631 C30.0612089,26.7253435 30.3406455,26.7913216 30.5812715,26.7913216 C31.1207394,26.7913216 31.4875,26.4478474 31.4875,25.8365798 L31.4875,9.18099296 L23.4342919,22.2698818 L23.4323513,22.2698818 Z M31.3807707,5.4454687 C31.3730086,5.4396471 31.3807707,5.42606338 31.3749491,5.42218232 L22.0118818,0.741618936 C21.8954499,0.683402973 21.7731964,0.667878717 21.6490023,0.656235524 C21.6179538,0.656235524 21.5907864,0.636830203 21.5577973,0.636830203 C21.2007394,0.636830203 20.8436815,0.815359155 20.6515689,1.12972535 L20.1858412,1.88653286 L19.2155751,3.46612598 L15.5479695,9.44296479 L19.2155751,15.4120415 L20.1858412,16.9896941 L21.1561072,18.5654061 L22.3010211,20.4089116 L31.4409272,5.58324648 C31.4797379,5.52503052 31.4603326,5.46681455 31.4021166,5.42800391 L31.3807707,5.4454687 Z M19.2136346,19.1165172 L14.401115,11.2903513 L13.8286581,10.3647175 L13.2581416,9.43908372 L12.7730086,8.63182238 L12.7730086,18.076392 L19.2155751,21.3034969 L20.1858412,21.7886299 L21.1561072,22.2737629 L20.1858412,20.6961103 L19.2155751,19.1184577 L19.2136346,19.1165172 Z M1.91767214,1.02493662 L1.63241393,0.88521831 C1.4674687,0.803715962 1.3102856,0.764905321 1.16668623,0.764905321 C0.76693662,0.764905321 0.4875,1.07539045 0.4875,1.59351252 L0.4875,21.3131995 C0.4875,21.8410243 0.875606416,22.4658756 1.34521518,22.7026205 L9.38872066,26.7389272 C9.59635759,26.8553592 9.79235133,26.8941698 9.97088028,26.8941698 C10.469597,26.8941698 10.8208333,26.5060634 10.8208333,25.8656878 L10.8208333,5.54637637 C10.8208333,5.50756573 10.7975469,5.46875509 10.7626174,5.45517136 L1.91961268,1.02493662 L1.91767214,1.02493662 Z" id="Shape"></path>
                    </g>
                </g>
            </g>
        </g>
    </g>
</svg>