<?xml version="1.0" encoding="UTF-8" standalone="no"?>
<svg class="icon icon--instagram" width="31px" height="31px" viewBox="0 0 31 31">
    <path d="M15.5,0 C11.2898125,0 10.7628125,0.019375 9.110125,0.093 C7.459375,0.1705 6.335625,0.430125 5.3475,0.81375 C4.328375,1.209 3.4623125,1.739875 2.6020625,2.6020625 C1.739875,3.4623125 1.2070625,4.3264375 0.81375,5.3475 C0.430125,6.335625 0.1685625,7.459375 0.093,9.110125 C0.0155,10.7628125 0,11.2898125 0,15.5 C0,19.7101875 0.019375,20.2371875 0.093,21.889875 C0.1705,23.540625 0.430125,24.6663125 0.81375,25.6525 C1.209,26.671625 1.739875,27.5376875 2.6020625,28.3979375 C3.4623125,29.260125 4.3264375,29.7929375 5.3475,30.18625 C6.335625,30.569875 7.459375,30.8314375 9.110125,30.907 C10.7628125,30.9845 11.2898125,31 15.5,31 C19.7101875,31 20.2371875,30.980625 21.889875,30.907 C23.540625,30.8295 24.6663125,30.569875 25.6525,30.18625 C26.671625,29.791 27.5376875,29.260125 28.3979375,28.3979375 C29.260125,27.5376875 29.7929375,26.6735625 30.18625,25.6525 C30.569875,24.664375 30.8314375,23.540625 30.907,21.889875 C30.9845,20.2371875 31,19.7101875 31,15.5 C31,11.2898125 30.980625,10.7628125 30.907,9.110125 C30.8295,7.459375 30.569875,6.3336875 30.18625,5.3475 C29.791,4.328375 29.260125,3.4623125 28.3979375,2.6020625 C27.5376875,1.739875 26.6735625,1.2070625 25.6525,0.81375 C24.664375,0.430125 23.540625,0.1685625 21.889875,0.093 C20.2371875,0.0155 19.7101875,0 15.5,0 Z M15.5,2.79 C19.6385,2.79 20.130625,2.809375 21.7639375,2.883 C23.2751875,2.95275 24.09475,3.204625 24.641125,3.41775 C25.36575,3.6986875 25.881125,4.033875 26.423625,4.576375 C26.966125,5.118875 27.3013125,5.63425 27.58225,6.358875 C27.795375,6.90525 28.04725,7.7248125 28.117,9.2360625 C28.190625,10.8713125 28.2080625,11.3615 28.2080625,15.5 C28.2080625,19.6385 28.1886875,20.130625 28.1111875,21.7639375 C28.0336875,23.2751875 27.7818125,24.09475 27.5686875,24.641125 C27.2780625,25.36575 26.9486875,25.881125 26.4061875,26.423625 C25.8636875,26.966125 25.3405625,27.3013125 24.6236875,27.58225 C24.0811875,27.795375 23.2480625,28.04725 21.7368125,28.117 C20.0899375,28.190625 19.6055625,28.2080625 15.4593125,28.2080625 C11.3130625,28.2080625 10.8286875,28.1886875 9.1818125,28.1111875 C7.6705625,28.0336875 6.8374375,27.7818125 6.2949375,27.5686875 C5.5586875,27.2780625 5.0549375,26.9486875 4.5124375,26.4061875 C3.9699375,25.8636875 3.6211875,25.3405625 3.3499375,24.6236875 C3.1368125,24.0811875 2.8849375,23.2480625 2.8074375,21.7368125 C2.7493125,20.1093125 2.7299375,19.6055625 2.7299375,15.4786875 C2.7299375,11.3518125 2.7493125,10.8480625 2.8074375,9.2011875 C2.8849375,7.6899375 3.1368125,6.8568125 3.3499375,6.3143125 C3.6211875,5.5780625 3.9699375,5.0743125 4.5124375,4.5318125 C5.0549375,3.9893125 5.5586875,3.6405625 6.2949375,3.3693125 C6.8374375,3.1561875 7.6511875,2.9043125 9.1624375,2.8268125 C10.8093125,2.7686875 11.2936875,2.7493125 15.4399375,2.7493125 L15.5,2.79 Z M15.5,7.54075 C11.101875,7.54075 7.54075,11.10575 7.54075,15.5 C7.54075,19.898125 11.10575,23.45925 15.5,23.45925 C19.898125,23.45925 23.45925,19.89425 23.45925,15.5 C23.45925,11.101875 19.89425,7.54075 15.5,7.54075 L15.5,7.54075 Z M15.5,20.6673125 C12.6460625,20.6673125 10.3326875,18.3539375 10.3326875,15.5 C10.3326875,12.6460625 12.6460625,10.3326875 15.5,10.3326875 C18.3539375,10.3326875 20.6673125,12.6460625 20.6673125,15.5 C20.6673125,18.3539375 18.3539375,20.6673125 15.5,20.6673125 Z M25.633125,7.226875 C25.633125,8.25375 24.8,9.086875 23.773125,9.086875 C22.74625,9.086875 21.913125,8.25375 21.913125,7.226875 C21.913125,6.2 22.74625,5.366875 23.773125,5.366875 C24.8,5.366875 25.633125,6.2 25.633125,7.226875 Z"></path>
</svg>